<svg xmlns="http://www.w3.org/2000/svg" width="24" height="24" viewBox="0 0 48 40" fill="none">
  <path d="M29.2112 0L26.4368 2.9399L0.379639 2.45123L29.2112 0Z" fill="#fff"/>
  <path d="M29.2112 0L26.4368 2.9399L36.3205 6.54975L29.2112 0Z" fill="#fff"/>
  <path d="M47.5415 16.888L26.4368 2.9399L36.3205 6.54976L47.5415 16.888Z" fill="#fff"/>
  <path d="M47.5415 16.888L26.4368 2.9399L35.3826 13.1862L47.5415 16.888Z" fill="#fff"/>
  <path d="M47.5415 16.888L45.9652 19.2105L35.3826 13.1862L47.5415 16.888Z" fill="#fff"/>
  <path d="M47.5416 16.888L45.9652 19.2105L45.5054 28.1931L47.5416 16.888Z" fill="#fff"/>
  <path d="M44.2759 28.5688L45.9652 19.2105L45.5054 28.1931L44.2759 28.5688Z" fill="#fff"/>
  <path d="M44.2759 28.5688L45.9652 19.2105H45.0115L44.2759 28.5688Z" fill="#fff"/>
  <path d="M29.6841 7.95534L26.4368 2.9399L35.3826 13.1862L29.6841 7.95534Z" fill="#fff"/>
  <path d="M29.6841 7.95534L25.9035 7.78983L35.3826 13.1862L29.6841 7.95534Z" fill="#fff"/>
  <path d="M29.6841 7.95535L26.4368 2.93991L0.379639 2.45124L29.6841 7.95535Z" fill="#fff"/>
  <path d="M8.55829 15.8187L10.8939 8.5386L0.379639 2.45124L8.55829 15.8187Z" fill="#fff"/>
  <path d="M8.55829 15.8187L4.95107 11.0555L0.379639 2.45124L8.55829 15.8187Z" fill="#fff"/>
  <path d="M8.55829 15.8187L4.95107 11.0555L7.5468 26.3698L8.55829 15.8187Z" fill="#fff"/>
  <path d="M8.5583 15.8187L10.8939 8.53859L11.8897 22.2056L8.5583 15.8187Z" fill="#fff"/>
  <path d="M8.5583 15.8187L9.57767 21.6486L11.8897 22.2056L8.5583 15.8187Z" fill="#fff"/>
  <path d="M8.55829 15.8187L9.57767 21.6486L7.5468 26.3698L8.55829 15.8187Z" fill="#fff"/>
  <path d="M17.1074 31.2985L9.57767 21.6486L7.5468 26.3698L17.1074 31.2985Z" fill="#fff"/>
  <path d="M17.1074 31.2985L27.4194 40L7.5468 26.3698L17.1074 31.2985Z" fill="#fff"/>
  <path d="M17.1074 31.2985L9.57767 21.6486L26.442 33.3609L17.1074 31.2985Z" fill="#fff"/>
  <path d="M11.8897 22.2056L9.57767 21.6486L26.442 33.3609L11.8897 22.2056Z" fill="#fff"/>
  <path d="M17.1074 31.2985L27.4194 40L26.442 33.3609L17.1074 31.2985Z" fill="#fff"/>
  <path d="M29.6631 35.5993L27.4194 40L26.442 33.3609L29.6631 35.5993Z" fill="#fff"/>
  <path d="M38.9924 32.536L27.4194 40L45.0509 30.7126L38.9924 32.536Z" fill="#fff"/>
  <path d="M38.9925 32.536L45.445 28.5346L45.0509 30.7126L38.9925 32.536Z" fill="#fff"/>
  <path d="M38.9924 32.5359L27.4194 40L29.6631 35.5993L38.9924 32.5359Z" fill="#fff"/>
  <path d="M38.9925 32.5359L29.2874 34.5248L29.6631 35.5993L38.9925 32.5359Z" fill="#fff"/>
  <path d="M26.442 33.3609L29.2874 34.5248L29.6631 35.5993L26.442 33.3609Z" fill="#fff"/>
  <path d="M38.9925 32.536L29.2874 34.5248L45.445 28.5346L38.9925 32.536Z" fill="#fff"/>
  <path d="M29.6841 7.95535L25.9035 7.78983L0.379639 2.45124L29.6841 7.95535Z" fill="#fff"/>
  <path d="M19.443 9.19803V12.4453L14.0624 10.3724L19.443 9.19803Z" fill="#fff"/>
  <path d="M19.443 9.19803V12.4453L30.1071 15.0122L19.443 9.19803Z" fill="#fff"/>
  <path d="M14.0624 15.2486L19.443 12.4453L14.0624 10.3724V15.2486Z" fill="#fff"/>
  <path d="M14.0624 15.2486V22.731L19.443 12.4453L14.0624 15.2486Z" fill="#fff"/>
  <path d="M28.8512 33.2847L14.0624 22.731L23.5468 25.1376L28.8512 33.2847Z" fill="#fff"/>
  <path d="M28.8512 33.2847L42.7416 27.2L35.7951 26.8768L28.8512 33.2847Z" fill="#fff"/>
  <path d="M30.6824 24.6857L38.9925 21.6486L35.7951 26.8769L30.6824 24.6857Z" fill="#fff"/>
  <path d="M30.6824 24.6857L38.9925 21.6486L34.4079 16.5596L30.6824 24.6857Z" fill="#fff"/>
  <path d="M44.2759 19.2105L38.9925 21.6486L34.4079 16.5596L44.2759 19.2105Z" fill="#fff"/>
  <path d="M30.6824 24.6857L22.9425 18.8269L23.5468 25.1376L30.6824 24.6857Z" fill="#fff"/>
  <path d="M30.6824 24.6857L22.9425 18.8269L28.8512 16.888L30.6824 24.6857Z" fill="#fff"/>
  <path d="M30.6824 24.6857L30.1071 15.0122L28.8512 16.888L30.6824 24.6857Z" fill="#fff"/>
  <path d="M19.443 12.4453L30.1071 15.0122L28.8512 16.888L19.443 12.4453Z" fill="#fff"/>
  <path d="M23.5468 25.1376L14.0624 22.731L22.9425 18.8269L23.5468 25.1376Z" fill="#fff"/>
  <path d="M28.8512 16.888L19.443 12.4453L22.9425 18.8269L28.8512 16.888Z" fill="#fff"/>
  <path d="M14.0624 22.731L19.443 12.4453L22.9425 18.8269L14.0624 22.731Z" fill="#fff"/>
  <path d="M23.5468 25.1376L28.8512 33.2847L30.6824 24.6857L23.5468 25.1376Z" fill="#fff"/>
  <path d="M35.7951 26.8769L28.8512 33.2847L30.6824 24.6857L35.7951 26.8769Z" fill="#fff"/>
  <path d="M35.7951 26.8769L42.7415 27.2L38.9924 21.6486L35.7951 26.8769Z" fill="#fff"/>
  <path d="M38.9925 21.6486L44.2759 19.2105L42.7416 27.2L38.9925 21.6486Z" fill="#fff"/>
  <path d="M19.443 9.19803L30.0125 13.4594L30.1071 15.0122L19.443 9.19803Z" fill="#fff"/>
  <path d="M44.2759 19.2105L34.9202 15.4378L34.4079 16.5596L44.2759 19.2105Z" fill="#fff"/>
  <path d="M30.6824 24.6857L34.4079 16.5596L30.1071 15.0122L30.6824 24.6857Z" fill="#fff"/>
  <path d="M34.9202 15.4378L34.4079 16.5596L30.1071 15.0122L34.9202 15.4378Z" fill="#fff"/>
  <path d="M34.9202 15.4378L30.0125 13.4594L30.1071 15.0121L34.9202 15.4378Z" fill="#fff"/>
  <path d="M19.443 9.19802L10.8939 8.53858L14.4985 7.00689L19.443 9.19802Z" fill="#111111"/>
  <path d="M0.379639 2.45124L10.8939 8.5386L14.4985 7.00691L0.379639 2.45124Z" fill="#161616"/>
  <path d="M25.9035 7.78983L0.379639 2.45124L14.4985 7.00691L25.9035 7.78983Z" fill="#111111"/>
  <path d="M19.443 9.19802L25.9034 7.78981L14.4985 7.00689L19.443 9.19802Z" fill="#161616"/>
  <path d="M19.443 9.19804L25.9035 7.78983L30.0125 13.4594L19.443 9.19804Z" fill="#0F0F0F"/>
  <path d="M35.3826 13.1862L25.9035 7.78983L30.0125 13.4594L35.3826 13.1862Z" fill="#0C0C0C"/>
  <path d="M35.3826 13.1862L34.9202 15.4378L30.0125 13.4594L35.3826 13.1862Z" fill="#111111"/>
  <path d="M19.443 9.19803L10.8939 8.53859L14.0624 10.3724L19.443 9.19803Z" fill="#010600"/>
  <path d="M11.8897 22.2056L10.8939 8.53859L14.0624 10.3724L11.8897 22.2056Z" fill="#141414"/>
  <path d="M11.8897 22.2056L14.0624 22.731V10.3724L11.8897 22.2056Z" fill="#0F0F0F"/>
  <path d="M11.8897 22.2056L14.0624 22.731L26.442 33.3609L11.8897 22.2056Z" fill="#191919"/>
  <path d="M28.8512 33.2847L14.0624 22.731L26.442 33.3609L28.8512 33.2847Z" fill="#191919"/>
  <path d="M28.8512 33.2847L29.2874 34.5248L26.442 33.3609L28.8512 33.2847Z" fill="#191919"/>
  <path d="M28.8512 33.2847L29.2874 34.5248L42.7416 27.2L28.8512 33.2847Z" fill="#212121"/>
  <path d="M35.3826 13.1862L34.9202 15.4378L44.2759 19.2105L35.3826 13.1862Z" fill="#0C0C0C"/>
  <path d="M35.3826 13.1862L45.0115 19.2105H45.9652L35.3826 13.1862Z" fill="#595959"/>
  <path d="M35.3826 13.1862L45.0115 19.2105H44.2759L35.3826 13.1862Z" fill="#111111"/>
  <path d="M42.7415 27.2L45.0115 19.2105H44.2759L42.7415 27.2Z" fill="#0A0A0A"/>
  <path d="M42.7415 27.2L45.0115 19.2105L44.2759 28.5688L42.7415 27.2Z" fill="#111111"/>
  <path d="M44.2759 28.5688L29.2874 34.5248L42.7416 27.2L44.2759 28.5688Z" fill="#353535"/>
  <path d="M44.2759 28.5688L29.2874 34.5248L45.445 28.5346L44.2759 28.5688Z" fill="#AFAFAF"/>
  <path d="M44.2759 28.5688L45.5054 28.1931L45.445 28.5346L44.2759 28.5688Z" fill="#353535"/>
</svg>