<svg xmlns="http://www.w3.org/2000/svg"  viewBox="0 0 152 40" fill="none">
  <g clip-path="url(#clip0_375_1798)">
    <path d="M29.2112 0L26.4368 2.9399L0.379639 2.45123L29.2112 0Z" fill="#D3D3D3"/>
    <path d="M29.2112 0L26.4368 2.9399L36.3205 6.54975L29.2112 0Z" fill="#A6A6A6"/>
    <path d="M47.5415 16.888L26.4368 2.9399L36.3205 6.54976L47.5415 16.888Z" fill="#A6A6A6"/>
    <path d="M47.5415 16.888L26.4368 2.9399L35.3826 13.1862L47.5415 16.888Z" fill="#727272"/>
    <path d="M47.5415 16.888L45.9652 19.2105L35.3826 13.1862L47.5415 16.888Z" fill="#444444"/>
    <path d="M47.5416 16.888L45.9652 19.2105L45.5054 28.1931L47.5416 16.888Z" fill="#282828"/>
    <path d="M44.2759 28.5688L45.9652 19.2105L45.5054 28.1931L44.2759 28.5688Z" fill="#595959"/>
    <path d="M44.2759 28.5688L45.9652 19.2105H45.0115L44.2759 28.5688Z" fill="#A5A5A5"/>
    <path d="M29.6841 7.95534L26.4368 2.9399L35.3826 13.1862L29.6841 7.95534Z" fill="#727272"/>
    <path d="M29.6841 7.95534L25.9035 7.78983L35.3826 13.1862L29.6841 7.95534Z" fill="#727272"/>
    <path d="M29.6841 7.95534L26.4368 2.93991L0.379639 2.45124L29.6841 7.95534Z" fill="#7F7F7F"/>
    <path d="M8.55829 15.8187L10.8939 8.53859L0.379639 2.45124L8.55829 15.8187Z" fill="#666666"/>
    <path d="M8.55829 15.8187L4.95107 11.0555L0.379639 2.45124L8.55829 15.8187Z" fill="#EDEDED"/>
    <path d="M8.55829 15.8187L4.95107 11.0555L7.5468 26.3698L8.55829 15.8187Z" fill="#D3D3D3"/>
    <path d="M8.5583 15.8187L10.8939 8.53859L11.8897 22.2056L8.5583 15.8187Z" fill="#2B2B2B"/>
    <path d="M8.5583 15.8187L9.57767 21.6486L11.8897 22.2056L8.5583 15.8187Z" fill="#A5A5A5"/>
    <path d="M8.55829 15.8187L9.57767 21.6486L7.5468 26.3698L8.55829 15.8187Z" fill="#A5A5A5"/>
    <path d="M17.1074 31.2985L9.57767 21.6486L7.5468 26.3698L17.1074 31.2985Z" fill="#939393"/>
    <path d="M17.1074 31.2985L27.4194 40L7.5468 26.3698L17.1074 31.2985Z" fill="#C9C9C9"/>
    <path d="M17.1074 31.2985L9.57767 21.6486L26.442 33.3609L17.1074 31.2985Z" fill="#6D6D6D"/>
    <path d="M11.8897 22.2056L9.57767 21.6486L26.442 33.3609L11.8897 22.2056Z" fill="#444444"/>
    <path d="M17.1074 31.2985L27.4194 40L26.442 33.3609L17.1074 31.2985Z" fill="#7F7F7F"/>
    <path d="M29.6631 35.5993L27.4194 40L26.442 33.3609L29.6631 35.5993Z" fill="#757575"/>
    <path d="M38.9924 32.536L27.4194 40L45.0509 30.7127L38.9924 32.536Z" fill="#212121"/>
    <path d="M38.9925 32.536L45.445 28.5346L45.0509 30.7126L38.9925 32.536Z" fill="#3A3A3A"/>
    <path d="M38.9924 32.536L27.4194 40L29.6631 35.5993L38.9924 32.536Z" fill="#3A3A3A"/>
    <path d="M38.9925 32.536L29.2874 34.5248L29.6631 35.5993L38.9925 32.536Z" fill="#3A3A3A"/>
    <path d="M26.442 33.3609L29.2874 34.5248L29.6631 35.5993L26.442 33.3609Z" fill="#191919"/>
    <path d="M38.9925 32.536L29.2874 34.5248L45.445 28.5346L38.9925 32.536Z" fill="#595959"/>
    <path d="M29.6841 7.95534L25.9035 7.78982L0.379639 2.45124L29.6841 7.95534Z" fill="#292929"/>
    <path d="M19.443 9.19803V12.4453L14.0624 10.3724L19.443 9.19803Z" fill="#013A01"/>
    <path d="M19.443 9.19803V12.4453L30.1071 15.0122L19.443 9.19803Z" fill="#003500"/>
    <path d="M14.0624 15.2486L19.443 12.4453L14.0624 10.3724V15.2486Z" fill="#013F01"/>
    <path d="M14.0624 15.2486V22.731L19.443 12.4453L14.0624 15.2486Z" fill="#148400"/>
    <path d="M28.8512 33.2847L14.0624 22.731L23.5468 25.1376L28.8512 33.2847Z" fill="#00C900"/>
    <path d="M28.8512 33.2847L42.7416 27.2L35.7951 26.8768L28.8512 33.2847Z" fill="#0D6600"/>
    <path d="M30.6824 24.6857L38.9925 21.6486L35.7951 26.8769L30.6824 24.6857Z" fill="#009900"/>
    <path d="M30.6824 24.6857L38.9925 21.6486L34.4079 16.5596L30.6824 24.6857Z" fill="#00A600"/>
    <path d="M44.2759 19.2105L38.9925 21.6486L34.4079 16.5596L44.2759 19.2105Z" fill="#008C00"/>
    <path d="M30.6824 24.6857L22.9425 18.8269L23.5468 25.1376L30.6824 24.6857Z" fill="#00EF00"/>
    <path d="M30.6824 24.6857L22.9425 18.8269L28.8512 16.888L30.6824 24.6857Z" fill="#00FF00"/>
    <path d="M30.6824 24.6857L30.1071 15.0122L28.8512 16.888L30.6824 24.6857Z" fill="#6CFF6C"/>
    <path d="M19.443 12.4453L30.1071 15.0122L28.8512 16.888L19.443 12.4453Z" fill="#A5F9A5"/>
    <path d="M23.5468 25.1376L14.0624 22.731L22.9425 18.8269L23.5468 25.1376Z" fill="#00D800"/>
    <path d="M28.8512 16.888L19.443 12.4453L22.9425 18.8269L28.8512 16.888Z" fill="#00E200"/>
    <path d="M14.0624 22.731L19.443 12.4453L22.9425 18.8269L14.0624 22.731Z" fill="#00CC00"/>
    <path d="M23.5468 25.1376L28.8512 33.2847L30.6824 24.6857L23.5468 25.1376Z" fill="#00E200"/>
    <path d="M35.7951 26.8769L28.8512 33.2847L30.6824 24.6857L35.7951 26.8769Z" fill="#008C00"/>
    <path d="M35.7951 26.8769L42.7415 27.2L38.9924 21.6486L35.7951 26.8769Z" fill="#008200"/>
    <path d="M38.9925 21.6486L44.2759 19.2105L42.7416 27.2L38.9925 21.6486Z" fill="#0C7A00"/>
    <path d="M19.443 9.19803L30.0125 13.4594L30.1071 15.0122L19.443 9.19803Z" fill="#002800"/>
    <path d="M44.2759 19.2105L34.9202 15.4378L34.4079 16.5596L44.2759 19.2105Z" fill="#002800"/>
    <path d="M30.6824 24.6857L34.4079 16.5596L30.1071 15.0122L30.6824 24.6857Z" fill="#031600"/>
    <path d="M34.9202 15.4378L34.4079 16.5596L30.1071 15.0122L34.9202 15.4378Z" fill="#020C00"/>
    <path d="M34.9202 15.4378L30.0125 13.4594L30.1071 15.0121L34.9202 15.4378Z" fill="#020C00"/>
    <path d="M19.443 9.19803L10.8939 8.53858L14.4985 7.00689L19.443 9.19803Z" fill="#111111"/>
    <path d="M0.379639 2.45124L10.8939 8.53859L14.4985 7.0069L0.379639 2.45124Z" fill="#161616"/>
    <path d="M25.9035 7.78982L0.379639 2.45124L14.4985 7.0069L25.9035 7.78982Z" fill="#111111"/>
    <path d="M19.443 9.19803L25.9034 7.78982L14.4985 7.00689L19.443 9.19803Z" fill="#161616"/>
    <path d="M19.443 9.19804L25.9035 7.78983L30.0125 13.4594L19.443 9.19804Z" fill="#0F0F0F"/>
    <path d="M35.3826 13.1862L25.9035 7.78983L30.0125 13.4594L35.3826 13.1862Z" fill="#0C0C0C"/>
    <path d="M35.3826 13.1862L34.9202 15.4378L30.0125 13.4594L35.3826 13.1862Z" fill="#111111"/>
    <path d="M19.443 9.19803L10.8939 8.53859L14.0624 10.3724L19.443 9.19803Z" fill="#010600"/>
    <path d="M11.8897 22.2056L10.8939 8.53859L14.0624 10.3724L11.8897 22.2056Z" fill="#141414"/>
    <path d="M11.8897 22.2056L14.0624 22.731V10.3724L11.8897 22.2056Z" fill="#0F0F0F"/>
    <path d="M11.8897 22.2056L14.0624 22.731L26.442 33.3609L11.8897 22.2056Z" fill="#191919"/>
    <path d="M28.8512 33.2847L14.0624 22.731L26.442 33.3609L28.8512 33.2847Z" fill="#191919"/>
    <path d="M28.8512 33.2847L29.2874 34.5248L26.442 33.3609L28.8512 33.2847Z" fill="#191919"/>
    <path d="M28.8512 33.2847L29.2874 34.5248L42.7416 27.2L28.8512 33.2847Z" fill="#212121"/>
    <path d="M35.3826 13.1862L34.9202 15.4378L44.2759 19.2105L35.3826 13.1862Z" fill="#0C0C0C"/>
    <path d="M35.3826 13.1862L45.0115 19.2105H45.9652L35.3826 13.1862Z" fill="#595959"/>
    <path d="M35.3826 13.1862L45.0115 19.2105H44.2759L35.3826 13.1862Z" fill="#111111"/>
    <path d="M42.7415 27.2L45.0115 19.2105H44.2759L42.7415 27.2Z" fill="#0A0A0A"/>
    <path d="M42.7415 27.2L45.0115 19.2105L44.2759 28.5688L42.7415 27.2Z" fill="#111111"/>
    <path d="M44.2759 28.5688L29.2874 34.5248L42.7416 27.2L44.2759 28.5688Z" fill="#353535"/>
    <path d="M44.2759 28.5688L29.2874 34.5248L45.445 28.5346L44.2759 28.5688Z" fill="#AFAFAF"/>
    <path d="M44.2759 28.5688L45.5054 28.1931L45.445 28.5346L44.2759 28.5688Z" fill="#353535"/>
    <path d="M99.9501 20.5977H110.097L110.693 17.2138H97.1626L95.6729 25.6709H105.819L105.523 27.3629H95.3734L94.777 30.7442H108.307L109.8 22.287H99.6506L99.9501 20.5977Z" fill="#00FF00"/>
    <path d="M128.377 20.5977H138.51L139.107 17.2138H125.576L123.191 30.7442H136.721L137.318 27.3629H127.184L127.468 25.6709H137.614L138.211 22.287H128.064L128.377 20.5977Z" fill="#00FF00"/>
    <path d="M151.62 17.2138H139.782L139.186 20.5977H147.643L147.346 22.287H138.889L138.292 25.6709H144.212L145.854 30.7442H149.235L147.593 25.6709H150.131L151.62 17.2138Z" fill="#00FF00"/>
    <path d="M117.24 22.287H113.859L112.367 30.7441H122.516L123.112 27.3629H116.36L117.24 22.287Z" fill="#00FF00"/>
    <path d="M111.371 17.2138L110.774 20.5977H124.305L124.901 17.2138H111.371Z" fill="#00FF00"/>
    <path d="M82.0637 22.287L80.5715 30.7441H83.9554L85.445 22.287H82.0637Z" fill="#00FF00"/>
    <path d="M96.4874 17.2138H82.957L82.3606 20.5977H92.5097L90.7179 30.7441H94.1018L96.4874 17.2138Z" fill="#00FF00"/>
    <path d="M82.2818 17.2138H68.7514L68.155 20.5977H78.3015L77.1087 27.3629H70.3435L71.2394 22.287H67.8555L66.3659 30.7442H79.8963L82.2818 17.2138Z" fill="#00FF00"/>
    <path d="M68.0736 17.2138H51.1619L50.5655 20.5977H57.3307L55.5416 30.7442H58.9228L60.712 20.5977H64.0959L62.3068 30.7442H65.688L68.0736 17.2138Z" fill="#00FF00"/>
    <path d="M50.2687 22.287L48.7764 30.7442H52.1603L53.6499 22.287H50.2687Z" fill="#00FF00"/>
  </g>
</svg>